<svg width="29" height="28" viewBox="0 0 29 28" fill="none" xmlns="http://www.w3.org/2000/svg">
<path d="M11.2296 6.13793V6.63793H11.7296H17.2685H17.7685V6.13793V5.31034C17.7685 4.93952 17.6037 4.59654 17.3319 4.35286L16.9981 4.72515L17.3319 4.35286C17.0619 4.11078 16.7062 3.98276 16.3454 3.98276H12.6528C12.2919 3.98276 11.9363 4.11078 11.6663 4.35286L12 4.72515L11.6663 4.35286C11.3944 4.59654 11.2296 4.93952 11.2296 5.31034V6.13793ZM19.538 6.13793V6.63793H20.038H25.1153C25.3665 6.63793 25.5979 6.72789 25.7607 6.87382C25.9216 7.01814 26 7.20141 26 7.37931C26 7.55721 25.9216 7.74048 25.7607 7.8848C25.5979 8.03073 25.3665 8.12069 25.1153 8.12069H24.5392H24.062L24.0398 8.59745L23.4527 21.2181C23.3999 22.3514 22.8604 23.4354 21.9264 24.2387C20.9908 25.0433 19.7346 25.4998 18.4188 25.5C18.4187 25.5 18.4187 25.5 18.4187 25.5H10.5812H10.5811C9.26496 25.5002 8.00832 25.0439 7.07236 24.2392C6.13797 23.4359 5.59825 22.3517 5.54551 21.2182C5.5455 21.2182 5.5455 21.2182 5.5455 21.2181L4.96023 8.59753L4.93812 8.12069H4.46077H3.88472C3.63351 8.12069 3.40211 8.03073 3.23933 7.8848L2.90558 8.2571L3.23933 7.8848C3.07835 7.74048 3 7.55721 3 7.37931C3 7.20141 3.07835 7.01814 3.23933 6.87382C3.40211 6.72789 3.63351 6.63793 3.88472 6.63793H8.96019H9.46019V6.13793V5.31034C9.46019 4.58372 9.78169 3.8742 10.3755 3.34188C10.9711 2.80794 11.7895 2.5 12.6528 2.5H16.3454C17.2087 2.5 18.0271 2.80794 18.6227 3.34188C19.2165 3.8742 19.538 4.58372 19.538 5.31034V6.13793ZM22.2656 8.6439L22.2899 8.12069H21.7661H7.23206H6.70828L6.7326 8.6439L7.31417 21.1602C7.31417 21.1602 7.31418 21.1603 7.31418 21.1603C7.35053 21.9472 7.72455 22.6781 8.33749 23.2052C8.94889 23.731 9.75342 24.0174 10.5812 24.0172C10.5813 24.0172 10.5813 24.0172 10.5813 24.0172H18.4188H18.419C19.2465 24.0169 20.0505 23.7303 20.6615 23.2045C21.274 22.6774 21.6477 21.9467 21.684 21.1602L22.2656 8.6439ZM10.8449 20.2069V11.931C10.8449 11.7531 10.9233 11.5699 11.0842 11.4255C11.247 11.2796 11.4784 11.1897 11.7296 11.1897C11.9808 11.1897 12.2122 11.2796 12.375 11.4255C12.536 11.5699 12.6144 11.7531 12.6144 11.931V20.2069C12.6144 20.3848 12.536 20.5681 12.375 20.7124C12.2122 20.8583 11.9808 20.9483 11.7296 20.9483C11.4784 20.9483 11.247 20.8583 11.0842 20.7124C10.9233 20.5681 10.8449 20.3848 10.8449 20.2069ZM17.2685 11.1897C17.5197 11.1897 17.7511 11.2796 17.9139 11.4255C18.0749 11.5699 18.1532 11.7531 18.1532 11.931V20.2069C18.1532 20.3848 18.0749 20.5681 17.9139 20.7124C17.7511 20.8583 17.5197 20.9483 17.2685 20.9483C17.0173 20.9483 16.7859 20.8583 16.6231 20.7124C16.4621 20.5681 16.3838 20.3848 16.3838 20.2069V11.931C16.3838 11.7531 16.4622 11.5699 16.6231 11.4255C16.7859 11.2796 17.0173 11.1897 17.2685 11.1897Z" fill="white" stroke="white"/>
</svg>
