<svg width="28" height="28" viewBox="0 0 28 28" fill="none" xmlns="http://www.w3.org/2000/svg">
<path d="M13.3706 3.25879H4.5268C3.85665 3.25879 3.21395 3.52501 2.74008 3.99887C2.26622 4.47274 2 5.11544 2 5.78559V23.4732C2 24.1434 2.26622 24.7861 2.74008 25.2599C3.21395 25.7338 3.85665 26 4.5268 26H22.2144C22.8846 26 23.5273 25.7338 24.0012 25.2599C24.475 24.7861 24.7412 24.1434 24.7412 23.4732V14.6294" stroke="black" stroke-width="2" stroke-linecap="round" stroke-linejoin="round"/>
<path d="M21.4244 2.78498C21.927 2.28236 22.6087 2 23.3195 2C24.0303 2 24.712 2.28236 25.2146 2.78498C25.7172 3.28759 25.9996 3.96928 25.9996 4.68008C25.9996 5.39088 25.7172 6.07257 25.2146 6.57519L13.8275 17.9635C13.5275 18.2632 13.1569 18.4826 12.7499 18.6015L9.1201 19.6628C9.01139 19.6945 8.89615 19.6964 8.78645 19.6683C8.67675 19.6402 8.57662 19.5831 8.49654 19.503C8.41647 19.4229 8.35939 19.3228 8.33129 19.2131C8.30318 19.1034 8.30508 18.9882 8.33679 18.8795L9.39805 15.2497C9.51747 14.843 9.73732 14.4728 10.0373 14.1733L21.4244 2.78498Z" stroke="black" stroke-width="2" stroke-linecap="round" stroke-linejoin="round"/>
</svg>
