<svg width="114" height="36" viewBox="0 0 114 36" fill="none" xmlns="http://www.w3.org/2000/svg">
<path d="M11.1958 34.884C9.05175 34.884 7.13175 34.468 5.43575 33.636C3.77175 32.804 2.47575 31.54 1.54775 29.844C0.61975 28.116 0.15575 25.924 0.15575 23.268V8.676H7.64375V22.164C7.64375 24.308 8.09175 25.892 8.98775 26.916C9.91575 27.908 11.2118 28.404 12.8758 28.404C14.0278 28.404 15.0518 28.164 15.9478 27.684C16.8438 27.172 17.5478 26.404 18.0598 25.38C18.5718 24.324 18.8278 23.012 18.8278 21.444V8.676H26.3158V34.5H19.2118V27.396L20.5078 29.46C19.6438 31.252 18.3638 32.612 16.6678 33.54C15.0038 34.436 13.1798 34.884 11.1958 34.884ZM49.8609 35.076C47.2689 35.076 44.8529 34.66 42.6129 33.828C40.4049 32.964 38.4849 31.748 36.8529 30.18C35.2209 28.612 33.9409 26.772 33.0129 24.66C32.1169 22.548 31.6689 20.228 31.6689 17.7C31.6689 15.172 32.1169 12.852 33.0129 10.74C33.9409 8.628 35.2209 6.788 36.8529 5.22C38.5169 3.652 40.4529 2.452 42.6609 1.62C44.8689 0.755999 47.2849 0.323999 49.9089 0.323999C52.8209 0.323999 55.4449 0.835999 57.7809 1.86C60.1489 2.852 62.1329 4.324 63.7329 6.276L58.7409 10.884C57.5889 9.572 56.3089 8.596 54.9009 7.956C53.4929 7.284 51.9569 6.948 50.2929 6.948C48.7249 6.948 47.2849 7.204 45.9729 7.716C44.6609 8.228 43.5249 8.964 42.5649 9.924C41.6049 10.884 40.8529 12.02 40.3089 13.332C39.7969 14.644 39.5409 16.1 39.5409 17.7C39.5409 19.3 39.7969 20.756 40.3089 22.068C40.8529 23.38 41.6049 24.516 42.5649 25.476C43.5249 26.436 44.6609 27.172 45.9729 27.684C47.2849 28.196 48.7249 28.452 50.2929 28.452C51.9569 28.452 53.4929 28.132 54.9009 27.492C56.3089 26.82 57.5889 25.812 58.7409 24.468L63.7329 29.076C62.1329 31.028 60.1489 32.516 57.7809 33.54C55.4449 34.564 52.8049 35.076 49.8609 35.076ZM84.1554 34.5V29.46L83.6754 28.356V19.332C83.6754 17.732 83.1794 16.484 82.1874 15.588C81.2274 14.692 79.7394 14.244 77.7234 14.244C76.3474 14.244 74.9874 14.468 73.6434 14.916C72.3314 15.332 71.2114 15.908 70.2834 16.644L67.5954 11.412C69.0034 10.42 70.6994 9.652 72.6834 9.108C74.6674 8.564 76.6834 8.292 78.7314 8.292C82.6674 8.292 85.7234 9.22 87.8994 11.076C90.0754 12.932 91.1634 15.828 91.1634 19.764V34.5H84.1554ZM76.2834 34.884C74.2674 34.884 72.5394 34.548 71.0994 33.876C69.6594 33.172 68.5554 32.228 67.7874 31.044C67.0194 29.86 66.6354 28.532 66.6354 27.06C66.6354 25.524 67.0034 24.18 67.7394 23.028C68.5074 21.876 69.7074 20.98 71.3394 20.34C72.9714 19.668 75.0994 19.332 77.7234 19.332H84.5874V23.7H78.5394C76.7794 23.7 75.5634 23.988 74.8914 24.564C74.2514 25.14 73.9314 25.86 73.9314 26.724C73.9314 27.684 74.2994 28.452 75.0354 29.028C75.8034 29.572 76.8434 29.844 78.1554 29.844C79.4034 29.844 80.5234 29.556 81.5154 28.98C82.5074 28.372 83.2274 27.492 83.6754 26.34L84.8274 29.796C84.2834 31.46 83.2914 32.724 81.8514 33.588C80.4114 34.452 78.5554 34.884 76.2834 34.884ZM97.9404 34.5V8.676H105.092V15.972L104.084 13.86C104.852 12.036 106.084 10.66 107.78 9.732C109.476 8.772 111.54 8.292 113.972 8.292V15.204C113.652 15.172 113.364 15.156 113.108 15.156C112.852 15.124 112.58 15.108 112.292 15.108C110.244 15.108 108.58 15.7 107.3 16.884C106.052 18.036 105.428 19.844 105.428 22.308V34.5H97.9404Z" fill="#3563E9"/>
</svg>
