<svg width="70" height="26" viewBox="0 0 70 26" fill="none" xmlns="http://www.w3.org/2000/svg">
<path d="M7.16 25.384C5.816 25.384 4.64267 25.0853 3.64 24.488C2.65867 23.8907 1.90133 23.0587 1.368 21.992C0.856 20.9253 0.6 19.6773 0.6 18.248V7.592H4.792V17.896C4.792 18.6213 4.93067 19.2613 5.208 19.816C5.50667 20.3493 5.92267 20.776 6.456 21.096C7.01067 21.3947 7.62933 21.544 8.312 21.544C8.99467 21.544 9.60267 21.3947 10.136 21.096C10.6693 20.776 11.0853 20.3387 11.384 19.784C11.6827 19.2293 11.832 18.568 11.832 17.8V7.592H16.024V25H12.056V21.576L12.408 22.184C12.0027 23.2507 11.3307 24.0507 10.392 24.584C9.47467 25.1173 8.39733 25.384 7.16 25.384ZM30.5128 25.384C28.8061 25.384 27.2274 25.0747 25.7768 24.456C24.3474 23.8373 23.0888 22.9733 22.0008 21.864C20.9341 20.7547 20.1021 19.4533 19.5048 17.96C18.9074 16.4667 18.6088 14.8347 18.6088 13.064C18.6088 11.2933 18.8968 9.66133 19.4728 8.168C20.0701 6.65333 20.9021 5.352 21.9688 4.264C23.0568 3.15467 24.3261 2.30133 25.7768 1.704C27.2274 1.08533 28.8061 0.775999 30.5128 0.775999C32.2194 0.775999 33.7448 1.064 35.0888 1.64C36.4541 2.216 37.6061 2.984 38.5448 3.944C39.4834 4.88267 40.1554 5.91733 40.5608 7.048L36.6568 8.872C36.2088 7.67733 35.4514 6.696 34.3848 5.928C33.3181 5.13867 32.0274 4.744 30.5128 4.744C29.0194 4.744 27.6968 5.096 26.5448 5.8C25.4141 6.504 24.5288 7.47467 23.8888 8.712C23.2701 9.94933 22.9608 11.4 22.9608 13.064C22.9608 14.728 23.2701 16.1893 23.8888 17.448C24.5288 18.6853 25.4141 19.656 26.5448 20.36C27.6968 21.064 29.0194 21.416 30.5128 21.416C32.0274 21.416 33.3181 21.032 34.3848 20.264C35.4514 19.4747 36.2088 18.4827 36.6568 17.288L40.5608 19.112C40.1554 20.2427 39.4834 21.288 38.5448 22.248C37.6061 23.1867 36.4541 23.944 35.0888 24.52C33.7448 25.096 32.2194 25.384 30.5128 25.384ZM47.7495 25.384C46.5335 25.384 45.4775 25.1813 44.5815 24.776C43.6855 24.3707 42.9922 23.7947 42.5015 23.048C42.0108 22.28 41.7655 21.3947 41.7655 20.392C41.7655 19.432 41.9788 18.5787 42.4055 17.832C42.8322 17.064 43.4935 16.424 44.3895 15.912C45.2855 15.4 46.4162 15.0373 47.7815 14.824L53.4775 13.896V17.096L48.5815 17.928C47.7495 18.0773 47.1308 18.344 46.7255 18.728C46.3202 19.112 46.1175 19.6133 46.1175 20.232C46.1175 20.8293 46.3415 21.3093 46.7895 21.672C47.2588 22.0133 47.8348 22.184 48.5175 22.184C49.3922 22.184 50.1602 22.0027 50.8215 21.64C51.5042 21.256 52.0268 20.7333 52.3895 20.072C52.7735 19.4107 52.9655 18.6853 52.9655 17.896V13.416C52.9655 12.6693 52.6668 12.0507 52.0695 11.56C51.4935 11.048 50.7255 10.792 49.7655 10.792C48.8695 10.792 48.0695 11.0373 47.3655 11.528C46.6828 11.9973 46.1815 12.6267 45.8615 13.416L42.4375 11.752C42.7788 10.8347 43.3122 10.0453 44.0375 9.384C44.7842 8.70133 45.6588 8.168 46.6615 7.784C47.6642 7.4 48.7522 7.208 49.9255 7.208C51.3548 7.208 52.6135 7.47467 53.7015 8.008C54.7895 8.52 55.6322 9.24533 56.2295 10.184C56.8482 11.1013 57.1575 12.1787 57.1575 13.416V25H53.1895V22.024L54.0855 21.96C53.6375 22.7067 53.1042 23.336 52.4855 23.848C51.8668 24.3387 51.1628 24.7227 50.3735 25C49.5842 25.256 48.7095 25.384 47.7495 25.384ZM60.072 25V7.592H64.008V11.464L63.688 10.888C64.0933 9.58667 64.7227 8.68 65.576 8.168C66.4507 7.656 67.496 7.4 68.712 7.4H69.736V11.112H68.232C67.0373 11.112 66.0773 11.4853 65.352 12.232C64.6267 12.9573 64.264 13.9813 64.264 15.304V25H60.072Z" fill="#3563E9"/>
</svg>
