<svg width="108" height="42" viewBox="0 0 108 42" fill="none" xmlns="http://www.w3.org/2000/svg">
<path d="M22.572 34.1318C22.572 33.4816 22.7135 32.8888 22.9966 32.3533C23.2796 31.8178 23.7042 31.3588 24.2703 30.9763C24.8363 30.5862 25.5401 30.2878 26.3816 30.0813C27.2307 29.8671 28.2175 29.76 29.342 29.76C30.1759 29.76 31.0518 29.8212 31.9697 29.9436C32.8953 30.066 33.8477 30.2534 34.8269 30.5059C34.7887 30.0775 34.6586 29.6835 34.4368 29.324C34.2149 28.9568 33.9051 28.6431 33.5073 28.3831C33.1172 28.1153 32.6429 27.9088 32.0845 27.7634C31.5337 27.6181 30.9064 27.5454 30.2026 27.5454C29.8201 27.5454 29.3994 27.5684 28.9404 27.6143C28.4814 27.6602 28.0072 27.729 27.5176 27.8208C27.028 27.9126 26.5422 28.0273 26.0603 28.165C25.586 28.3027 25.1423 28.4672 24.7292 28.6584L23.6965 25.8701C24.2091 25.6865 24.756 25.5182 25.3374 25.3652C25.9264 25.2122 26.5269 25.0822 27.1389 24.9751C27.7509 24.8604 28.3629 24.7724 28.9749 24.7112C29.5868 24.65 30.1797 24.6194 30.7534 24.6194C33.2855 24.6194 35.1673 25.2658 36.3989 26.5586C37.6305 27.8514 38.2463 29.8327 38.2463 32.5024V38.4004H34.8499V37.1267C34.498 37.3333 34.1117 37.5283 33.6909 37.7119C33.2778 37.8955 32.8265 38.0562 32.3369 38.1938C31.8473 38.3315 31.3195 38.4386 30.7534 38.5151C30.195 38.5993 29.6021 38.6414 28.9749 38.6414C27.9192 38.6414 26.9897 38.5266 26.1865 38.2971C25.391 38.0676 24.7254 37.7502 24.1899 37.3447C23.6545 36.9393 23.249 36.465 22.9736 35.9219C22.7059 35.3711 22.572 34.7744 22.572 34.1318ZM26.1521 34.0171C26.1521 34.2389 26.2095 34.4531 26.3242 34.6597C26.439 34.8586 26.6226 35.0383 26.875 35.199C27.1274 35.352 27.4487 35.4782 27.8389 35.5776C28.2367 35.6694 28.7148 35.7153 29.2732 35.7153C29.8699 35.7153 30.4474 35.6618 31.0059 35.5547C31.5643 35.4476 32.0845 35.3061 32.5664 35.1301C33.0483 34.9542 33.4844 34.7515 33.8745 34.522C34.2646 34.2925 34.5898 34.0553 34.8499 33.8105V33.2139C34.3297 33.0685 33.8133 32.9461 33.3008 32.8467C32.7959 32.7472 32.3101 32.6707 31.8435 32.6172C31.3845 32.556 30.9485 32.5139 30.5354 32.491C30.13 32.468 29.7743 32.4565 29.4683 32.4565C28.8333 32.4565 28.3055 32.4986 27.8848 32.5828C27.464 32.6669 27.1236 32.7817 26.8635 32.927C26.6034 33.0647 26.4198 33.2292 26.3127 33.4204C26.2056 33.6117 26.1521 33.8105 26.1521 34.0171ZM41.9297 31.6648C41.9297 30.6703 42.1095 29.7447 42.469 28.8879C42.8362 28.0235 43.3678 27.2777 44.064 26.6504C44.7677 26.0155 45.6245 25.5182 46.6343 25.1587C47.6517 24.7992 48.8106 24.6194 50.1111 24.6194C50.6772 24.6194 51.2471 24.6538 51.8208 24.7227C52.3945 24.7915 52.9453 24.891 53.4731 25.021C54.0086 25.1434 54.5097 25.2926 54.9763 25.4685C55.443 25.6368 55.8484 25.8242 56.1926 26.0308L54.6206 28.5896C53.8786 28.2454 53.1748 27.9929 52.5093 27.8323C51.8514 27.6716 51.182 27.5913 50.5012 27.5913C49.7209 27.5913 49.021 27.6946 48.4014 27.9011C47.7817 28.1 47.2539 28.3831 46.8179 28.7502C46.3895 29.1098 46.0605 29.5382 45.8311 30.0354C45.6092 30.525 45.4983 31.0605 45.4983 31.6418C45.4983 32.2232 45.6169 32.7625 45.854 33.2598C46.0988 33.7493 46.4392 34.1739 46.8752 34.5334C47.3189 34.8853 47.8506 35.1646 48.4702 35.3711C49.0975 35.57 49.7936 35.6694 50.5586 35.6694C51.4001 35.6694 52.1918 35.5509 52.9338 35.3137C53.6835 35.0766 54.3796 34.7591 55.0222 34.3613L56.5942 36.9202C56.1888 37.165 55.7489 37.3944 55.2747 37.6086C54.8004 37.8152 54.2917 37.995 53.7485 38.1479C53.2131 38.3009 52.647 38.4195 52.0503 38.5037C51.4613 38.5955 50.8493 38.6414 50.2144 38.6414C48.9215 38.6414 47.7626 38.4654 46.7375 38.1135C45.7125 37.7616 44.8442 37.2759 44.1328 36.6562C43.4214 36.029 42.8744 35.2908 42.4919 34.4417C42.1171 33.5925 41.9297 32.6669 41.9297 31.6648ZM60.2546 19.3755H63.6511V25.8931C64.3625 25.5029 65.1543 25.1931 66.0264 24.9636C66.9061 24.7341 67.8279 24.6194 68.7917 24.6194C69.9086 24.6194 70.9107 24.7839 71.7981 25.1128C72.6931 25.4417 73.4504 25.916 74.0701 26.5356C74.6897 27.1476 75.164 27.8935 75.4929 28.7732C75.8295 29.6529 75.9978 30.6436 75.9978 31.7451V38.4004H72.6128V31.8828C72.6128 31.2402 72.5095 30.655 72.303 30.1272C72.0964 29.5917 71.7943 29.1327 71.3965 28.7502C70.9987 28.3678 70.5129 28.0732 69.9392 27.8667C69.3731 27.6525 68.7306 27.5454 68.0115 27.5454C67.1471 27.5454 66.3438 27.6831 65.6018 27.9585C64.8598 28.2339 64.2096 28.5819 63.6511 29.0027V38.4004H60.2546V19.3755ZM79.8188 19.364H83.2153V30.6091L89.5493 24.8604H94.7473L87.6675 31.1943L95.1948 38.4004H90.1001L85.0627 33.5237L83.2153 35.176V38.4004H79.8188V19.364ZM99.2224 23.0129C98.8858 23.0129 98.5798 22.967 98.3044 22.8752C98.0367 22.7758 97.8072 22.6458 97.616 22.4851C97.4247 22.3168 97.2756 22.1256 97.1685 21.9114C97.069 21.6895 97.0193 21.4562 97.0193 21.2114C97.0193 20.959 97.069 20.7257 97.1685 20.5115C97.2756 20.2896 97.4247 20.0984 97.616 19.9377C97.8072 19.7771 98.0367 19.6509 98.3044 19.5591C98.5798 19.4596 98.8858 19.4099 99.2224 19.4099C99.5667 19.4099 99.8726 19.4596 100.14 19.5591C100.416 19.6509 100.649 19.7771 100.84 19.9377C101.032 20.0984 101.177 20.2896 101.276 20.5115C101.383 20.7257 101.437 20.959 101.437 21.2114C101.437 21.4562 101.383 21.6895 101.276 21.9114C101.177 22.1256 101.032 22.3168 100.84 22.4851C100.649 22.6458 100.416 22.7758 100.14 22.8752C99.8726 22.967 99.5667 23.0129 99.2224 23.0129ZM97.5242 24.8604H100.921V38.4004H97.5242V24.8604Z" fill="black"/>
<path d="M12.0158 16.5254H1.94577C1.90187 16.5254 1.86118 16.5024 1.83859 16.4647L0.114209 13.5907C0.064085 13.5072 0.124558 13.401 0.221979 13.4014L26.4762 13.5241C26.5834 13.5246 26.6403 13.6508 26.5697 13.7314L24.1625 16.4827C24.1388 16.5098 24.1045 16.5254 24.0685 16.5254H16.9689V38.1504H12.0158V16.5254Z" fill="black"/>
<path d="M26.6248 12.876H0.125C0.125 12.876 0.5 7.90063 1.25 7.62597C1.98536 7.35667 18.25 7.62597 18.25 7.62597C18.25 7.62597 21.1795 5.58942 23.5 5.00097C27.5376 3.9771 29.8844 3.76774 34 3.12597C42.3465 1.82447 53.875 0.0656615 55.5 0.750973C58.5 2.01615 73.375 11.501 73.375 11.501C73.375 11.501 95.3102 11.251 95.875 11.501C97.472 12.2078 101.266 15.0503 102.488 15.9798C102.746 16.1757 102.959 16.4195 103.121 16.6993L107.375 24.0256C107.375 24.0256 95.875 14.2756 94.875 14.2756H65.375C64.875 14.2756 63.125 11.376 63.125 11.376C63.125 11.376 59.875 11.751 59.5 11.626C59.125 11.501 58.125 10.751 58.125 10.751C58.125 10.751 59.25 9.75097 59.5 9.62597C59.75 9.50098 61.6184 9.22826 62.875 9.62597C63.9852 9.97734 64.2223 11.0861 65.375 11.251C66.3133 11.3852 67.75 10.751 67.75 10.751C67.75 10.751 56.3292 2.25097 54.125 2.25097C53.4997 2.25097 36.8127 5.72401 36.625 5.77563C36.3214 5.8591 23.8485 9.10732 23.2694 9.37597C23 9.50097 22.16 10.1666 22.375 10.501C22.6248 11.126 25.7495 12.251 26.6248 12.876Z" fill="black" stroke="black" stroke-width="0.25" stroke-linejoin="round"/>
</svg>
