<svg width="28" height="28" viewBox="0 0 28 28" fill="none" xmlns="http://www.w3.org/2000/svg">
<path d="M18.3333 8.22222H18.3478M1 5.33333C1 4.18406 1.45655 3.08186 2.2692 2.2692C3.08186 1.45655 4.18406 1 5.33333 1H22.6667C23.8159 1 24.9181 1.45655 25.7308 2.2692C26.5435 3.08186 27 4.18406 27 5.33333V22.6667C27 23.8159 26.5435 24.9181 25.7308 25.7308C24.9181 26.5435 23.8159 27 22.6667 27H5.33333C4.18406 27 3.08186 26.5435 2.2692 25.7308C1.45655 24.9181 1 23.8159 1 22.6667V5.33333Z" stroke="black" stroke-width="2" stroke-linecap="round" stroke-linejoin="round"/>
<path d="M1 19.7775L8.22222 12.5553C9.56267 11.2654 11.2151 11.2654 12.5556 12.5553L19.7778 19.7775" stroke="black" stroke-width="2" stroke-linecap="round" stroke-linejoin="round"/>
<path d="M16.8887 16.8884L18.3331 15.444C19.6736 14.1541 21.326 14.1541 22.6664 15.444L26.9998 19.7773" stroke="black" stroke-width="2" stroke-linecap="round" stroke-linejoin="round"/>
</svg>
